<svg aria-hidden="true" style="position: absolute; width: 0; height: 0; overflow: hidden;" version="1.1" xmlns="http://www.w3.org/2000/svg" xmlns:xlink="http://www.w3.org/1999/xlink">
<defs>
<symbol id="icon-pages" viewBox="0 0 28 32">
<path fill="#ffca42" style="fill: var(--color1, #ffca42)" d="M3.932 25.269h23.102v-24.717h-23.166c-2.133 0.007-3.861 1.751-3.868 3.905v22.759h0.001c0 0.010-0.001 0.019-0.001 0.029 0 2.279 1.771 4.203 3.868 4.203h23.166v-2.060h-23.166c-0.956 0-1.828-1.021-1.828-2.143 0-1.071 0.866-1.976 1.892-1.976zM6.121 2.633h6.121v11.124l-3.086-2.735-3.035 2.719v-11.108zM2.040 4.473c-0.003-1.023 0.814-1.856 1.828-1.862h0.212v13.903h2.017l3.066-2.746 3.098 2.746h2.021v-13.903h10.712v20.598h-21.062c-0.664 0-1.315 0.175-1.891 0.507v-19.243h-0.001z"></path>
</symbol>
</defs>
</svg>
